<svg xmlns="http://www.w3.org/2000/svg" viewBox="0 0 260 260" fill="#f0b036">
  <path d="M199.74 126.96c10.18 12.73 42.77 61.9 52.56 82.45 5.92 12.44 10.09 32.51 6.17 40.86 -3.92 8.35-25.72 10.97-29.68 9.21 -13.93-6.17-25.76-59.87-31.94-84.99 -3.87-15.73-6.08-33.52-5.6-41.44 0.21-3.48 6.31-8.82 8.49-6.1Zm-147.1 75.55c-7.07-8.74-9.42-20.85-7.53-34.3 8.54 2.84 18.76 9.45 28.14 18.84 9.27 9.27 15.83 19.35 18.73 27.82 -13.66 1.96-25.95-0.45-34.75-7.72l-8.01 4.67c-0.36 0.21-0.82 0.15-1.12-0.14 -0.3-0.3-0.36-0.75-0.14-1.12l4.68-8.04Zm-2.08-53.93c2.06-5.18 4.69-10.4 7.82-15.58 11.78 4.17 26.63 14.14 40.56 28.06 13.93 13.93 23.89 28.78 28.06 40.56 -5.18 3.13-10.4 5.75-15.58 7.81 -4.99-10.74-13.96-23.24-25.79-35.07 -11.84-11.84-24.35-20.81-35.07-25.79Zm19.41-31.73c2.53-3.06 5.26-6.03 8.15-8.93 1.45-1.44 2.91-2.85 4.39-4.18 12.47 3 29.24 13.48 44.75 28.99 15.51 15.51 26 32.28 28.99 44.75 -1.34 1.48-2.74 2.95-4.18 4.39 -2.9 2.9-5.87 5.62-8.93 8.15 -3.13-12.41-13.56-28.97-28.88-44.3 -15.33-15.33-31.88-25.75-44.3-28.88Zm29.78-26.5c5.91-3.86 11.94-7.06 17.92-9.56 10.8 4.99 23.47 14.07 35.47 26.07 12 12 21.08 24.68 26.07 35.47 -2.49 5.97-5.69 12.01-9.56 17.92 -4.01-11.88-14.17-27.13-28.47-41.43 -14.29-14.29-29.53-24.44-41.43-28.47Zm90.12-31.13c6.56 0.28 11.76 5.63 11.85 12.19 0.12 8.2 0.27 18.82 0.36 25.37 0.06 3.85-1.45 7.56-4.17 10.28 -1.05 1.06-2.21 2.21-3.34 3.34 -1.69 1.69-3.97 2.63-6.36 2.63 -2.38 0-4.67-0.95-6.36-2.63 -8.55-8.55-23.68-23.68-32.21-32.21 -3.5-3.5-3.51-9.16-0.04-12.67 1.06-1.08 2.15-2.17 3.15-3.19 2.82-2.86 6.73-4.39 10.74-4.22 6.84 0.29 17.92 0.76 26.37 1.12Zm-56.84 1.05c-12.73-10.18-61.9-42.77-82.45-52.56 -12.44-5.92-32.51-10.09-40.86-6.17 -8.35 3.92-10.97 25.72-9.21 29.69 6.17 13.93 59.87 25.76 84.99 31.94 15.73 3.87 33.52 6.08 41.44 5.6 3.48-0.21 8.82-6.31 6.1-8.49Z"/>
</svg>
